<?xml version="1.0" encoding="utf-8"?>
<!-- Generator: Adobe Illustrator 19.2.1, SVG Export Plug-In . SVG Version: 6.00 Build 0)  -->
<svg version="1.1" id="layer" xmlns="http://www.w3.org/2000/svg" xmlns:xlink="http://www.w3.org/1999/xlink" x="0px" y="0px"
	 viewBox="0 0 652 652" style="enable-background:new 0 0 652 652;" xml:space="preserve">
<style type="text/css">
	.st0{fill:#00B0B9;}
	.st1{fill:#002A3A;}
</style>
<path class="st0" d="M107.5,255.3c0,6.4-5.3,11.7-11.7,11.7c-6.4,0-11.7-5.3-11.7-11.7s5.3-11.7,11.7-11.7
	C102.2,243.6,107.5,248.9,107.5,255.3z M95.8,276.5c-6.9,0-12.2,5.3-12.2,12.2s5.3,12.2,12.2,12.2s12.2-5.3,12.2-12.2
	S102.7,276.5,95.8,276.5z M95.8,309.3c-6.9,0-12.7,5.8-12.7,12.7s5.8,12.7,12.7,12.7c6.9,0,12.7-5.8,12.7-12.7
	S102.7,309.3,95.8,309.3z M95.8,342.7c-6.9,0-12.2,5.3-12.2,12.2c0,6.9,5.3,12.2,12.2,12.2s12.2-5.3,12.2-12.2
	C108,348.5,102.7,342.7,95.8,342.7z M95.8,376.6c-6.4,0-11.7,5.3-11.7,11.7c0,6.4,5.3,11.7,11.7,11.7c6.4,0,11.7-5.3,11.7-11.7
	C107.5,381.9,102.2,376.6,95.8,376.6z M128.2,274.9c-7.4,0-13.8,6.4-13.8,13.8s6.4,13.8,13.8,13.8s13.8-6.4,13.8-13.8
	S135.6,274.9,128.2,274.9z M128.2,307.7c-7.9,0-14.3,6.4-14.3,14.3s6.4,14.3,14.3,14.3s14.3-6.4,14.3-14.3S136.1,307.7,128.2,307.7z
	 M128.2,341.1c-7.4,0-13.8,6.4-13.8,13.8s6.4,13.8,13.8,13.8s13.8-6.4,13.8-13.8S135.6,341.1,128.2,341.1z M161.5,306.1
	c-8.5,0-15.9,6.9-15.9,15.9c0,8.5,6.9,15.9,15.9,15.9s15.9-6.9,15.9-15.9C176.9,313,170,306.1,161.5,306.1z M63,278.1
	c-5.8,0-10.6,4.8-10.6,10.6c0,5.8,4.8,10.6,10.6,10.6s10.6-4.8,10.6-10.6S68.8,278.1,63,278.1z M63,310.9c-6.4,0-11.1,4.8-11.1,11.1
	c0,6.4,4.8,11.1,11.1,11.1s11.1-4.8,11.1-11.1C74.1,315.7,69.4,310.9,63,310.9z M63,344.3c-5.8,0-10.6,4.8-10.6,10.6
	c0,5.8,4.8,10.6,10.6,10.6s10.6-4.8,10.6-10.6C73.6,349,68.8,344.3,63,344.3z M30.2,312.5c-5.3,0-9.5,4.2-9.5,9.5s4.2,9.5,9.5,9.5
	s9.5-4.2,9.5-9.5S35.5,312.5,30.2,312.5z"/>
<path class="st1" d="M297.1,301.4c-1.1,0-2.1,1.1-2.1,2.1v83.1c0,1.1,1.1,2.1,2.1,2.1h10.1c1.1,0,2.1-1.1,2.1-2.1v-83.1
	c0-1.1-1.1-2.1-2.1-2.1C307.1,301.4,297.1,301.4,297.1,301.4z M302.4,266.4c-5.3,0-9.5,4.2-9.5,9.5c0,5.3,4.2,9.5,9.5,9.5
	c5.3,0,9.5-4.2,9.5-9.5C311.9,270.6,307.7,266.4,302.4,266.4z M510.5,301.4c-1.1,0-2.1,1.1-2.1,2.1v83.1c0,1.1,1.1,2.1,2.1,2.1h10.1
	c1.1,0,2.1-1.1,2.1-2.1v-83.1c0-1.1-1.1-2.1-2.1-2.1C520.6,301.4,510.5,301.4,510.5,301.4z M515.3,266.4c-5.3,0-9.5,4.2-9.5,9.5
	c0,5.3,4.2,9.5,9.5,9.5s9.5-4.2,9.5-9.5C524.8,270.6,520.6,266.4,515.3,266.4z M615.9,380.8c0.5-0.5,0.5-1.1,0.5-1.6v-0.5
	c0,0,0-0.5-0.5-0.5c0,0-0.5-0.5-1.1-0.5h-3.7v7.4h1.1v-2.6h1.6l2.1,2.6h1.1l-2.6-3.2C615.4,381.9,615.9,381.3,615.9,380.8z
	 M612.2,381.3v-2.6h2.1c0.5,0,1.1,0,1.6,0.5c0.5,0,0.5,0.5,0.5,1.1c0,0.5,0,1.1-0.5,1.1l-1.6,0.5h-2.1V381.3z M613.8,374.4
	c-3.7,0-6.9,3.2-6.9,6.9s3.2,6.9,6.9,6.9c3.7,0,6.9-3.2,6.9-6.9S617.5,374.4,613.8,374.4z M613.8,387.7c-3.7,0-6.4-2.6-6.4-6.4
	s2.6-6.4,6.4-6.4c3.7,0,6.4,2.6,6.4,6.4S616.9,387.7,613.8,387.7z M379.7,315.1c1.1,0,2.1-1.1,2.1-2.1V303c0-1.1-1.1-2.1-2.1-2.1
	h-21.2v-31.8c0-1.1-1.1-2.1-2.1-2.1h-10.1c-1.1,0-2.1,1.1-2.1,2.1v31.8h-10.6c-1.1,0-2.1,1.1-2.1,2.1V313c0,1.1,1.1,2.1,2.1,2.1
	h10.6v48.2c0,14.8,10.1,24.4,24.4,24.4h10.6c1.1,0,2.1-1.1,2.1-2.1v-10.1c0-1.1-1.1-2.1-2.1-2.1h-9c-6.9,0-11.7-4.8-11.7-12.2v-46.6
	h21.2V315.1z M590.5,315.1c1.1,0,2.1-1.1,2.1-2.1V303c0-1.1-1.1-2.1-2.1-2.1h-21.2v-31.8c0-1.1-1.1-2.1-2.1-2.1h-10.1
	c-1.1,0-2.1,1.1-2.1,2.1v31.8h-10.6c-1.1,0-2.1,1.1-2.1,2.1V313c0,1.1,1.1,2.1,2.1,2.1H555v48.2c0,14.8,10.1,24.4,24.4,24.4h10.6
	c1.1,0,2.1-1.1,2.1-2.1v-10.1c0-1.1-1.1-2.1-2.1-2.1h-9.5c-6.9,0-11.7-4.8-11.7-12.2v-46.6h21.7V315.1z M234.1,315.1v71
	c0,1.1,1.1,2.1,2.1,2.1h10.1c1.1,0,2.1-1.1,2.1-2.1v-71h23.3c1.1,0,2.1-1.1,2.1-2.1V303c0-1.1-1.1-2.1-2.1-2.1h-23.3v-18.5
	c0-7.4,5.3-12.7,11.7-12.7h11.7c1.1,0,2.1-1.1,2.1-2.1v-10.1c0-1.1-1.1-2.1-2.1-2.1h-11.1c-14.8,0-26.5,12.2-26.5,26.5v19.1h-10.6
	c-1.1,0-2.1,1.1-2.1,2.1V313c0,1.1,1.1,2.1,2.1,2.1C223.5,315.1,234.1,315.1,234.1,315.1z M476.6,311.4
	c-7.9-8.5-19.1-13.2-30.7-13.2c-11.1,0-22.2,4.8-29.1,11.7v-53c0-1.1-1.1-2.1-2.1-2.1h-10.1c-1.1,0-2.1,1.1-2.1,2.1v87.4
	c0,32.3,21.7,46.6,42.9,46.6c21.2,0,42.9-14.3,42.9-46.6C488.8,331.5,484.6,319.9,476.6,311.4z M445.9,377.6
	c-21.2,0-29.1-16.9-29.1-32.8c0-19.6,11.7-32.3,29.1-32.3c17.5,0,29.1,13.2,29.1,32.3C474.5,360.7,467.1,377.6,445.9,377.6z"/>
</svg>
